<?xml version="1.0" encoding="UTF-8" standalone="no"?>
<svg xmlns="http://www.w3.org/2000/svg" viewBox="0 0 200 50">
  <!-- Hood Pharmacies Logo (Walmart-style) -->
  <g fill="#0071DC">
    <!-- Spark/Sunburst Symbol -->
    <path d="M25,5 C28,15 35,20 45,25 C35,30 28,35 25,45 C22,35 15,30 5,25 C15,20 22,15 25,5 Z" />
    
    <!-- Text -->
    <path d="M55,15 L60,15 L63,30 L66,15 L71,15 L74,30 L77,15 L82,15 L77,35 L72,35 L69,20 L66,35 L61,35 L55,15 Z" />
    <path d="M85,15 C90,15 95,17 95,25 C95,33 90,35 85,35 C80,35 75,33 75,25 C75,17 80,15 85,15 Z M85,19 C83,19 80,20 80,25 C80,30 83,31 85,31 C87,31 90,30 90,25 C90,20 87,19 85,19 Z" />
    <path d="M97,15 L102,15 L102,17 C103,15 105,15 107,15 L107,20 C105,20 102,20 102,23 L102,35 L97,35 L97,15 Z" />
    <path d="M110,15 L115,15 L115,17 C116,15 118,15 120,15 C125,15 125,18 125,20 L125,35 L120,35 L120,22 C120,20 120,19 118,19 C116,19 115,20 115,22 L115,35 L110,35 L110,15 Z" />
    
    <!-- Pharmacy Text -->
    <path d="M130,15 L135,15 L135,17 C136,15 138,15 140,15 C145,15 145,18 145,20 L145,35 L140,35 L140,22 C140,20 140,19 138,19 C136,19 135,20 135,22 L135,35 L130,35 L130,15 Z" />
    <path d="M150,15 L155,15 L155,35 L150,35 L150,15 Z M150,8 L155,8 L155,13 L150,13 L150,8 Z" />
    <path d="M160,15 L165,15 L165,17 C166,15 168,15 170,15 C175,15 175,18 175,20 L175,35 L170,35 L170,22 C170,20 170,19 168,19 C166,19 165,20 165,22 L165,35 L160,35 L160,15 Z" />
    <path d="M180,15 C185,15 190,17 190,25 C190,33 185,35 180,35 C175,35 170,33 170,25 C170,17 175,15 180,15 Z M180,19 C178,19 175,20 175,25 C175,30 178,31 180,31 C182,31 185,30 185,25 C185,20 182,19 180,19 Z" />
  </g>
</svg>
